<svg xmlns="http://www.w3.org/2000/svg" width="48" height="34" viewBox="0 0 48 34"><g><g><path fill="#fff" d="M47 1H1v32h46zm1-1v34H0V0zM35.314 9.93l5.656 5.657-2.12 2.12-.708.708-1.414 1.414-.707.707-1.415 1.414-.707.708-1.414 1.414-.707.707-1.414 1.414-.707.707-2.829 2.828-2.12-2.12L24 26.9l-1.414-1.414-.707-.708-.708-.707-.706-.707-2.122-2.121-.707-.708-1.414-1.414-.707-.707L14.1 17l-.707-.707-1.415-1.414-.707-.707-1.414-1.415-.707-.707L7.03 9.93l5.657-5.657 14.141 14.142zm0 1.414l-7.779 7.778-.707.707-.707-.707L12.686 5.686 8.444 9.93l1.414 1.414 1.414-1.414.707.707-1.414 1.414 1.414 1.414 1.415-1.414.707.707-1.415 1.414 1.415 1.415 2.121-2.122.707.708-2.121 2.121 1.414 1.414 1.414-1.414.707.707-1.414 1.414 1.414 1.415 1.415-1.415.707.707-1.414 1.414 1.414 1.415 2.121-2.121.707.706-2.121 2.122.707.707.707.707L24 22.657l.707.707-1.414 1.414 1.414 1.415 1.415-1.415.707.708-1.415 1.414 1.414 1.413 2.121-2.121-1.414-1.414.707-.707 1.414 1.414 1.415-1.414-1.414-1.414.707-.707 1.414 1.413 1.414-1.414-2.121-2.12.707-.708 2.121 2.121 1.414-1.414-1.414-1.414.707-.707 1.414 1.414 1.415-1.414-1.414-1.414.707-.707 1.414 1.413 1.414-1.414z"/></g></g></svg>
