<svg xmlns="http://www.w3.org/2000/svg" width="26" height="18" viewBox="0 0 26 18"><g><g><path fill="#eb2645" d="M5.187 18a.506.506 0 0 1-.454-.275L.07 8.445a.483.483 0 0 1 .232-.655l14.289-6.765A.516.516 0 0 1 14.97 1l3.894 1.25a.5.5 0 0 1 .295.25l2.151 4.284a.483.483 0 0 1-.232.654.51.51 0 0 1-.675-.226l-2.058-4.098-3.498-1.121-13.65 6.463 4.22 8.399 13.65-6.462.537-1.455a4.795 4.795 0 0 1-.637-.159 4.725 4.725 0 0 1-.892-.39c-.07.042-.145.081-.228.12-1.281.607-2.822.109-3.436-1.11a2.355 2.355 0 0 1-.103-1.893 2.547 2.547 0 0 1 1.317-1.419 2.662 2.662 0 0 1 1.963-.133c.651.21 1.174.65 1.472 1.244.183.363.27.77.249 1.176a.498.498 0 0 1-.53.463.495.495 0 0 1-.479-.513c.013-.24-.038-.48-.147-.697a1.478 1.478 0 0 0-.882-.742 1.642 1.642 0 0 0-1.204.082c-.381.18-.668.49-.809.87a1.41 1.41 0 0 0 .06 1.132c.334.662 1.131.971 1.854.75a4.384 4.384 0 0 1-.89-1.207.483.483 0 0 1 .232-.654.512.512 0 0 1 .674.225 3.452 3.452 0 0 0 1.191 1.335 3.805 3.805 0 0 0 1.893.61c.028.001.056 0 .083.004.6.003 1.205-.11 1.765-.376 1.844-.873 2.633-3 1.76-4.742-.875-1.739-3.088-2.443-4.932-1.572a.512.512 0 0 1-.675-.225.483.483 0 0 1 .232-.655c2.347-1.11 5.163-.2 6.28 2.023 1.12 2.227.122 4.942-2.223 6.051a4.906 4.906 0 0 1-1.913.473l-.701 1.903a.494.494 0 0 1-.254.274L5.408 17.95a.52.52 0 0 1-.221.05zm1.385-4.479a.505.505 0 0 1-.453-.275.483.483 0 0 1 .232-.655l5.992-2.836a.511.511 0 0 1 .674.226.483.483 0 0 1-.232.654l-5.992 2.837a.524.524 0 0 1-.22.05zm-1.56-3.104a.506.506 0 0 1-.454-.276.483.483 0 0 1 .232-.654l5.993-2.837a.512.512 0 0 1 .675.226.483.483 0 0 1-.232.654l-5.994 2.837a.523.523 0 0 1-.22.05z"/></g></g></svg>
