<svg width="20" height="13" viewBox="0 0 20 13" fill="none" xmlns="http://www.w3.org/2000/svg">
<path d="M20 0H0V13H20V0Z" fill="white"/>
<path d="M0 0V1L5.1 4.3H6.7L0 0ZM8.8 0V5.2H0V7.8H8.8V13H11.2V7.8H20V5.2H11.2V0H8.8ZM18.4 0L12 4.2V4.3H13.3L20 0H18.4ZM6.6 8.7L0 13H1.6L8 8.8V8.7H6.6ZM13.3 8.7L20 13V12L14.9 8.7H13.3Z" fill="#C8102E"/>
<path d="M2.3 0L8 3.7V0H2.3ZM12 0V3.7L17.7 0H12ZM0 1.5V4.3H4.3L0 1.5ZM20 1.5L15.7 4.3H20V1.5ZM0 8.7V11.5L4.3 8.7H0ZM15.7 8.7L20 11.5V8.7H15.7ZM12 9.3V13H17.7L12 9.3ZM8 9.3L2.3 13H8V9.3Z" fill="#012169"/>
</svg>
